<?xml version="1.0" standalone="no"?>
<!DOCTYPE svg PUBLIC "-//W3C//DTD SVG 20010904//EN"
 "http://www.w3.org/TR/2001/REC-SVG-20010904/DTD/svg10.dtd">
<svg version="1.0" xmlns="http://www.w3.org/2000/svg"
 width="1920.000000pt" height="1920.000000pt" viewBox="0 0 1920.000000 1920.000000"
 preserveAspectRatio="xMidYMid meet">
<metadata>
Created by potrace 1.14, written by Peter Selinger 2001-2017
</metadata>
<g transform="translate(0.000000,1920.000000) scale(0.100000,-0.100000)"
fill="#000000" stroke="none">
<path d="M13717 17463 c-1 -1 -362 -4 -802 -8 -440 -3 -991 -8 -1225 -10 -234
-3 -715 -7 -1070 -10 -355 -3 -868 -7 -1140 -10 -272 -2 -792 -7 -1155 -10
-363 -3 -876 -8 -1140 -10 -264 -3 -813 -7 -1220 -11 -407 -3 -777 -7 -822 -8
-120 -4 -139 -19 -237 -192 -44 -76 -86 -152 -95 -169 -9 -16 -21 -37 -27 -45
-6 -8 -27 -44 -46 -80 -40 -73 -60 -108 -248 -440 -73 -129 -140 -248 -150
-265 -9 -16 -28 -50 -42 -75 -14 -25 -34 -61 -45 -80 -54 -95 -281 -495 -323
-570 -26 -47 -58 -103 -70 -125 -12 -22 -43 -76 -67 -120 -25 -44 -62 -109
-83 -145 -48 -82 -293 -517 -333 -590 -17 -30 -41 -72 -54 -92 -13 -21 -23
-40 -23 -42 0 -3 -22 -43 -50 -90 -27 -47 -50 -89 -50 -95 0 -6 -4 -11 -10
-11 -5 0 -10 -4 -10 -10 0 -5 -14 -32 -30 -60 -17 -28 -45 -79 -64 -113 -19
-34 -60 -107 -91 -162 -31 -55 -71 -125 -88 -155 -58 -105 -70 -126 -150 -265
-44 -77 -91 -160 -105 -185 -14 -25 -60 -107 -104 -184 -43 -76 -78 -141 -78
-144 0 -3 -6 -13 -14 -21 -7 -9 -30 -47 -51 -86 -21 -38 -56 -101 -78 -140
-22 -38 -51 -90 -65 -115 -14 -25 -53 -94 -87 -155 -35 -60 -74 -130 -88 -155
-14 -25 -50 -89 -81 -144 -31 -54 -56 -101 -56 -104 0 -3 -6 -13 -14 -21 -7
-9 -31 -50 -53 -91 -22 -41 -61 -110 -87 -153 -25 -43 -46 -80 -46 -82 0 -2
-23 -43 -51 -92 -28 -48 -62 -107 -75 -130 -13 -24 -43 -78 -67 -120 -24 -43
-55 -98 -69 -123 -14 -25 -52 -92 -85 -150 -61 -106 -224 -396 -260 -460 -11
-19 -138 -244 -283 -500 -145 -256 -269 -481 -276 -501 -17 -49 -5 -92 59
-199 27 -47 58 -98 67 -115 9 -16 68 -115 130 -220 62 -104 120 -204 130 -221
21 -36 163 -278 328 -558 62 -104 112 -193 112 -197 0 -5 5 -9 10 -9 6 0 10
-4 10 -10 0 -5 32 -62 70 -126 38 -65 70 -119 70 -120 0 -1 23 -39 50 -84 28
-45 50 -83 50 -85 0 -2 23 -40 50 -84 28 -44 50 -82 50 -85 0 -2 25 -46 56
-97 31 -52 65 -107 74 -124 19 -33 324 -552 480 -815 54 -91 107 -181 117
-200 11 -19 53 -89 93 -155 40 -66 76 -129 81 -140 5 -11 34 -60 64 -109 30
-49 55 -90 55 -92 0 -1 41 -71 91 -156 51 -84 100 -166 109 -183 9 -16 54 -93
100 -170 46 -77 91 -153 100 -170 9 -16 45 -76 79 -133 33 -56 61 -107 61
-112 0 -6 3 -10 8 -10 4 0 12 -10 18 -23 11 -21 57 -102 93 -162 50 -84 239
-406 359 -610 74 -126 144 -246 157 -265 13 -19 34 -55 48 -80 19 -34 292
-499 406 -692 64 -108 170 -288 191 -324 14 -23 86 -145 159 -271 74 -125 179
-302 232 -393 53 -91 109 -180 124 -198 48 -57 59 -59 400 -56 416 3 1667 14
2255 19 261 3 763 7 1115 10 352 3 863 8 1135 10 272 2 781 7 1130 10 349 3
862 7 1140 10 278 3 808 7 1179 10 549 5 680 8 707 20 33 14 94 71 94 88 0 5
16 36 36 70 47 80 51 86 183 322 61 110 116 207 121 215 9 15 56 99 192 340
36 63 74 131 85 150 11 19 48 85 82 145 34 61 66 117 71 125 5 8 100 176 212
373 226 399 218 385 272 482 22 39 48 85 58 103 10 17 27 49 39 70 12 20 24
42 29 47 4 6 24 41 45 79 38 71 316 563 353 626 12 19 27 46 35 60 28 51 374
665 454 805 22 39 55 97 73 130 18 33 77 137 130 230 53 94 114 201 136 240
21 38 44 78 49 87 11 19 139 245 186 328 17 30 50 89 74 130 23 41 55 98 70
125 15 28 83 147 150 265 167 294 211 372 242 428 14 26 91 162 171 302 241
426 308 543 333 590 13 25 26 47 30 50 3 3 14 23 26 45 19 37 33 63 82 148 58
101 242 428 295 522 91 163 91 159 -60 415 -198 336 -386 653 -405 685 -10 17
-24 41 -32 55 -21 39 -48 84 -132 225 -73 123 -89 149 -134 228 -10 17 -61
104 -113 192 -189 318 -243 410 -247 420 -2 6 -17 29 -32 52 -16 23 -29 44
-29 47 0 3 -42 76 -94 163 -51 87 -145 246 -208 353 -63 107 -162 274 -219
370 -57 96 -107 182 -112 190 -11 21 -32 58 -236 404 -100 169 -191 322 -201
340 -10 17 -75 128 -145 246 -70 118 -139 235 -153 260 -14 25 -32 56 -42 70
-9 14 -47 77 -84 140 -37 63 -71 122 -76 130 -26 43 -366 621 -388 660 -14 25
-51 88 -82 140 -31 52 -71 122 -90 155 -19 33 -37 62 -42 63 -4 2 -8 7 -8 11
0 9 -153 272 -181 313 -11 14 -19 28 -19 31 0 3 -41 74 -91 158 -51 85 -99
168 -109 184 -68 120 -687 1167 -706 1195 -45 66 -68 73 -247 74 -87 1 -159 0
-160 -1z"/>
</g>
</svg>
